<svg width="20" height="18" viewBox="0 0 20 18" fill="none" xmlns="http://www.w3.org/2000/svg">
<path d="M11.6139 2.58827L13.3453 4.46951H17.1773V15.757H2.03879V4.46951H5.87072L7.60218 2.58827H11.6139ZM12.4465 0.707031H6.76956L5.0381 2.58827H2.03879C0.998023 2.58827 0.146484 3.43483 0.146484 4.46951V15.757C0.146484 16.7916 0.998023 17.6382 2.03879 17.6382H17.1773C18.218 17.6382 19.0696 16.7916 19.0696 15.757V4.46951C19.0696 3.43483 18.218 2.58827 17.1773 2.58827H14.1779L12.4465 0.707031ZM9.60802 7.29138C11.1692 7.29138 12.4465 8.56121 12.4465 10.1132C12.4465 11.6653 11.1692 12.9351 9.60802 12.9351C8.04687 12.9351 6.76956 11.6653 6.76956 10.1132C6.76956 8.56121 8.04687 7.29138 9.60802 7.29138ZM9.60802 5.41013C6.99664 5.41013 4.87725 7.51713 4.87725 10.1132C4.87725 12.7094 6.99664 14.8163 9.60802 14.8163C12.2194 14.8163 14.3388 12.7094 14.3388 10.1132C14.3388 7.51713 12.2194 5.41013 9.60802 5.41013Z" fill="white"/>
</svg>
