<svg width="15" height="19" viewBox="0 0 15 19" fill="none" xmlns="http://www.w3.org/2000/svg">
<path d="M12.6388 2.33864H9.34305C9.0119 1.42403 8.14459 0.761719 7.11959 0.761719C6.09459 0.761719 5.22728 1.42403 4.89613 2.33864H1.60036C0.733053 2.33864 0.0234375 3.04826 0.0234375 3.91557V16.531C0.0234375 17.3983 0.733053 18.1079 1.60036 18.1079H12.6388C13.5061 18.1079 14.2157 17.3983 14.2157 16.531V3.91557C14.2157 3.04826 13.5061 2.33864 12.6388 2.33864ZM7.11959 2.33864C7.55325 2.33864 7.90805 2.69345 7.90805 3.1271C7.90805 3.56076 7.55325 3.91557 7.11959 3.91557C6.68594 3.91557 6.33113 3.56076 6.33113 3.1271C6.33113 2.69345 6.68594 2.33864 7.11959 2.33864ZM12.6388 16.531H1.60036V3.91557H3.17728V6.28095H11.0619V3.91557H12.6388V16.531Z" fill="white"/>
</svg>
