<svg width="31" height="32" viewBox="0 0 31 32" fill="none" xmlns="http://www.w3.org/2000/svg">
<path d="M26.8889 21.8472V26.8889C26.8889 27.8132 26.1326 28.5694 25.2083 28.5694H23.5278V21.8472H26.8889ZM6.72222 21.8472V28.5694H5.04167C4.11736 28.5694 3.36111 27.8132 3.36111 26.8889V21.8472H6.72222ZM15.125 0C6.77264 0 0 6.77264 0 15.125V26.8889C0 29.6786 2.25194 31.9306 5.04167 31.9306H10.0833V18.4861H3.36111V15.125C3.36111 8.62125 8.62125 3.36111 15.125 3.36111C21.6287 3.36111 26.8889 8.62125 26.8889 15.125V18.4861H20.1667V31.9306H25.2083C27.9981 31.9306 30.25 29.6786 30.25 26.8889V15.125C30.25 6.77264 23.4774 0 15.125 0Z" fill="white"/>
</svg>
